<?xml version="1.0" encoding="utf-8"?>
<!-- Generator: Adobe Illustrator 23.0.1, SVG Export Plug-In . SVG Version: 6.00 Build 0)  -->
<svg version="1.1" id="Warstwa_1" xmlns="http://www.w3.org/2000/svg" xmlns:xlink="http://www.w3.org/1999/xlink" x="0px" y="0px"
	 viewBox="0 0 100% 100%" xml:space="preserve">
<style type="text/css">
	.st0{fill-rule:evenodd;clip-rule:evenodd;fill:#00AEEF;stroke:#FFFFFF;stroke-width:2;stroke-miterlimit:10;}
	.st1{fill-rule:evenodd;clip-rule:evenodd;fill:#4E7559;stroke:#FFFFFF;stroke-miterlimit:10;}
	.st2{fill-rule:evenodd;clip-rule:evenodd;fill:#00AEEF;stroke:#FFFFFF;stroke-miterlimit:10;}
	.st3{fill-rule:evenodd;clip-rule:evenodd;fill:#00A651;stroke:#FFFFFF;stroke-miterlimit:10;}
	.st4{fill-rule:evenodd;clip-rule:evenodd;stroke:#FFFFFF;stroke-miterlimit:10;}
	.st5{fill:#FFFFFF;stroke:#000000;stroke-miterlimit:10;}
	.st6{fill:#FF00FF;stroke:#000000;stroke-miterlimit:10;index-z:9999;}
</style>
<g id="New_Layer">
	<g id="nwg">
		<path class="st0" d="M177.4,31.9l-2.4,2.9l-6.7,2.4l-9.2,4.8l-1.9,4.8l-4.8,5.3l-0.5,4.3l-2.9,1l-5.3,12l-7.2,10.1l-3.9,1
			l-2.4,3.9l-2.9-0.5l-10.6,6.3c0,0-23.6-0.1-27.8,1.7c-4.3,1.8-3.5,11.3-3.5,11.3v7.7l-6.3-1.9l-2.9,0.5l1-2.9l3.4-1.4l0.5-1.9
			l-6.7-1.9V16h103.1v15.9H177.4z"/>
	</g>
	<g id="nth">
		<path class="st0" d="M85.4,110.9v-7.7c0,0-0.1-9.1,2.4-10.6c5.8-3.4,31.3-2.4,31.3-2.4v33.7h3.4l-1.4,6.3h-16.4V161H86.4l-3.9-3.9
			l-12-46.3L85.4,110.9L85.4,110.9z"/>
	</g>
	<g id="swi">
		<polygon class="st1" points="103.7,190.9 103.3,192.8 96.5,200 98,201.5 100.8,198.6 102.8,202 105.7,202.5 109.5,201.5 
			112.4,203.9 113.4,201.5 120.1,202.9 121.1,201 119.2,198.1 115.8,196.2 115.8,192.3 114.8,190.9 111.4,190.4 110,191.9 		"/>
	</g>
	<g id="adr">
		<polygon class="st2" points="158.2,247.3 146.1,235.7 147.6,234.3 142.8,234.3 137,229.4 134.1,220.3 128.3,216.9 128.8,209.2 
			133.1,207.8 136,208.2 135.5,210.2 137,213.5 138.9,209.2 140.8,209.7 142.3,217.4 150.5,226.1 162.5,234.7 162.5,245.8 
			164.4,247.3 		"/>
	</g>
	<g id="aeg">
		<polygon class="st0" points="184.2,274.7 181.8,266.5 185.2,267 184.7,263.2 189,264.6 188.5,261.2 181.3,254 181.8,252.6 
			185.2,254 180.3,248.7 181.8,245.8 185.6,249.2 187.1,248.7 186.6,245.8 189,246.3 186.1,243.4 191.9,243.4 195.8,241.5 
			199.6,242.4 200.6,243.9 202.5,244.9 200.6,248.2 200.1,250.6 203.9,250.2 203.9,251.6 205.4,254.5 203.9,255.9 203.9,260.3 
			206.8,261.7 208.8,268.5 212.6,268 212.6,271.4 203.5,280.5 201.5,279.5 189.5,279.1 187.6,278.1 		"/>
	</g>
	<g id="alb">
		<polygon class="st3" points="162.5,234.7 162.5,245.8 164.4,247.3 166.4,250.6 171.7,245.8 171.7,242.9 169.7,240.5 169.7,233.8 
			165.4,230.9 162,230.4 		"/>
	</g>
	<g id="ank">
		<polygon class="st3" points="270.4,227 268.5,226.5 253.6,228.5 250.7,227 249.2,228 244.9,224.6 234.8,227 229.5,231.4 
			226.6,236.2 228.5,238.1 228.5,246.8 227.6,252.6 230.9,252.6 239.1,247.3 244.4,248.2 247.8,247.3 258.9,237.6 266.1,238.6 
			270.4,237.6 271.4,232.3 		"/>
	</g>
	<g id="apu">
		<polygon class="st3" points="149.5,249.2 152.4,247.3 156.3,249.7 158.2,249.7 158.2,247.3 146.1,235.7 147.6,234.3 142.8,234.3 
			137,229.4 135.1,231.4 137.5,233.3 137.9,235.2 137.5,236.7 144.2,247.7 		"/>
	</g>
	<g id="arm">
		<polygon class="st3" points="296.5,253.5 284.4,246.3 274.3,246.8 273.8,242.9 270.9,241 270.4,237.6 271.4,232.3 270.4,227 
			277.7,221.7 286.8,229 289.2,227.5 293.6,228.5 296.5,228 		"/>
	</g>
	<g id="bal">
		<polygon class="st0" points="131.2,138.9 133.6,141.3 137,138.4 136.5,136.4 137.9,135.5 137.5,133.1 138.9,137.9 142.3,138.4 
			144.7,134 150,133.6 153.4,126.3 152.9,122 176,122 171.2,126.3 170.2,133.1 170.2,135.5 170.7,138.4 168.8,142.2 165.4,143.2 
			164,147.5 161.1,148 160.1,143.7 154.3,144.2 151,147.5 144.7,148.5 140.8,148 141.3,144.6 137.9,144.2 131.2,148.5 128.8,148 
			128.3,145.6 126.4,144.2 126.4,142.7 125.4,138.9 		"/>
	</g>
	<g id="bar">
		<polygon class="st0" points="263.2,16 260.8,20.3 258.4,18.9 252.1,25.2 251.6,31.9 250.2,34.3 250.2,27.1 247.3,25.6 246.3,28.5 
			243.5,31.9 240.1,39.1 241.5,43.9 238.2,44.9 233.8,43.5 232.9,42.5 234.8,40.1 230.9,36.7 227.6,37.7 230.4,45.9 233.3,47.8 
			233.3,51.7 230.4,50.7 228.5,51.7 223.2,59.8 229,64.2 228,67.1 225.6,68.5 217,64.7 216,69 218.4,71.4 221.8,73.3 220.8,74.8 
			212.1,72.9 208.3,65.6 208.3,61.3 202.5,58.4 201.5,56 217.4,56.5 223.2,54.1 224.2,47.8 221.3,45.4 203.9,38.6 198.2,39.6 
			196.2,37.7 194.3,39.1 191.4,38.6 193.4,35.8 192.9,34.3 188,31.9 187.1,35.3 186.1,31.9 184.7,30.9 183.2,34.3 181.8,31.9 
			179.4,36.2 179.4,31.9 177.4,31.9 177.4,16 		"/>
	</g>
	<g id="bel">
		<polygon class="st3" points="95.1,160.1 96.5,162 102.3,163.4 101.8,165.8 103.3,167.8 104.2,173.1 101.8,175.5 95.5,171.6 
			91.7,167.8 84.5,165.8 86.4,161 		"/>
	</g>
	<g id="ber">
		<polygon class="st3" points="144.7,148.5 140.8,148 141.3,144.6 137.9,144.2 131.2,148.5 131.2,152.3 129.3,154.3 130.2,157.2 
			128.8,158.6 129.8,165.4 141.8,162.9 145.7,160.5 146.1,158.6 143.7,155.7 		"/>
	</g>
	<g id="bla">
		<polygon class="st0" points="215,236.7 210.2,235.2 208.3,232.8 206.4,228.5 207.8,221.7 209.7,221.2 210.2,219.8 211.2,213.1 
			214.5,210.6 214.1,207.3 217.9,198.1 224.2,196.7 225.1,197.6 224.2,198.6 227.1,200.5 232.4,199.6 233.3,200.5 230.4,201.5 
			228.5,204.9 232.9,206.8 232.9,209.2 237.2,210.6 238.2,207.3 241,206.8 242.5,204.9 247.3,203.4 246.8,201 241,202.5 
			236.7,198.1 245.4,191.4 256.5,185.1 256.9,186.6 250.7,191.9 252.1,194.7 253.6,194.7 251.2,201 249.2,200.5 248.8,202 
			252.1,205.3 257.4,205.8 270,211.6 276.2,212.6 279.1,216.9 277.7,221.7 270.4,227 268.5,226.5 253.6,228.5 250.7,227 249.2,228 
			244.9,224.6 234.8,227 229.5,231.4 226.6,236.2 216,237.6 		"/>
	</g>
	<g id="boh">
		<polygon class="st3" points="138.4,187.5 136,182.7 132.2,181.3 130.2,174.5 131.2,172.6 137,173.1 141.8,170.7 146.1,171.1 
			152.9,176.9 154.3,176 157.7,179.3 158.2,183.2 155.3,183.7 149,182.7 145.2,184.1 143.7,188 		"/>
	</g>
	<g id="bre">
		<polygon class="st3" points="75.3,169.7 72.4,169.2 71.5,166.3 68.6,165.4 68.6,173.1 62.8,171.6 61.8,169.2 52.2,168.7 
			51.2,171.1 52.7,174 55.6,174.5 62.3,181.7 61.8,184.6 62.3,188 64.7,190.9 73.4,191.9 73.4,178.4 74.3,174.5 		"/>
	</g>
	<g id="bud">
		<polygon class="st3" points="192.9,197.2 193.4,200 196.2,201.5 198.6,206.8 196.2,209.7 189.5,209.7 179.9,211.6 178.9,214.5 
			176.5,215 167.8,213.5 165.9,214.5 164.4,213.5 163,213.5 158.7,212.6 157.7,207.8 152.9,205.8 151.4,200.5 152.9,196.7 
			158.2,194.3 164.4,186.6 165.4,184.6 171.7,183.2 176.5,185.1 180.3,186.1 184.7,189.4 185.2,190.9 188,191.9 		"/>
	</g>
	<g id="bul">
		<polyline class="st3" points="202,239.6 201.5,234.7 205.4,233.3 208.3,232.8 206.4,228.5 207.8,221.7 209.7,221.2 210.2,219.8 
			206.4,218.4 200.6,218.4 197.7,219.3 194.8,221.7 190.9,220.8 187.1,221.7 183.7,219.8 181.3,220.8 179.9,218.8 178.9,220.8 
			180.3,224.6 181.8,227 		"/>
		<polyline class="st3" points="181.8,227 179.4,227.5 181.8,235.7 178.9,238.1 180.8,239.6 184.2,239.6 190,237.6 191.9,243.4 
			195.8,241.5 199.6,242.4 202,239.6 201.5,234.7 		"/>
	</g>
	<g id="bur">
		<polygon class="st3" points="95.5,171.6 101.8,175.5 101.3,178.8 104.7,182.7 105.7,185.6 103.7,190.9 103.3,192.8 96.5,200 
			88.8,199.6 88.8,203.9 86.4,206.8 84,206.3 81.6,202.5 82.5,200.5 79.2,199.1 78.2,196.2 82.5,191.9 92.2,181.7 93.6,176 		"/>
	</g>
	<g id="cly">
		<polygon class="st3" points="69.5,119.1 65.7,116.2 65.2,110.9 70,107.1 70.5,103.7 74.3,101.3 81.1,103.2 80.6,105.1 77.2,106.6 
			76.3,109.5 73.4,112.4 72.4,118.6 		"/>
	</g>
	<g id="con">
		<polygon class="st3" points="199.6,242.4 200.6,243.9 202.5,244.9 200.6,248.2 200.1,250.6 203.9,250.2 203.9,251.6 206.8,250.6 
			211.2,253.5 220.8,254.5 227.6,252.6 228.5,246.8 228.5,238.1 226.6,236.2 216,237.6 215,236.7 210.2,235.2 208.3,232.8 
			205.4,233.3 201.5,234.7 202,239.6 		"/>
		<polygon class="st2" points="202.5,244.9 205.9,241 212.6,239.1 215,236.7 216,237.6 214.5,239.1 218.9,239.6 207.8,244.9 		"/>
	</g>
	<g id="den">
		<polygon class="st3" points="137.5,133.1 135.5,132.6 132.6,133.1 131.2,131.6 131.7,128.7 131.2,122.5 129.8,123.4 122.5,123.9 
			121.1,130.2 120.1,135 120.6,138.4 125.4,138.9 131.2,138.9 133.6,141.3 137,138.4 136.5,136.4 137.9,135.5 		"/>
		<polygon class="st0" points="132.6,133.1 132.2,134.5 129.8,135 131.2,138.9 125.4,138.9 126.9,135 131.2,131.6 		"/>
	</g>
	<g id="eas">
		<polygon class="st0" points="212.6,271.4 215.5,269.4 218.4,270.4 221.3,273.3 226.6,271.8 227.6,267 231.9,266.5 236.7,270.4 
			239.6,271.4 246.3,269.4 249.2,263.6 253.6,265.1 256.9,260.8 258.4,261.2 256,265.6 256.5,271.4 259.4,273.8 257.4,285.3 
			195.8,285.3 195.8,282.9 202.5,282 203.5,280.5 		"/>
	</g>
	<g id="edi">
		<polygon class="st3" points="76.3,109.5 79.2,109 85.4,110.9 84.9,113.3 82.5,117.2 79.2,119.1 75.8,119.6 78.7,120.1 80.6,121 
			81.6,124.9 77.7,125.8 72.9,120.5 72.4,118.6 73.4,112.4 		"/>
	</g>
	<g id="eng">
		<polygon class="st0" points="86.4,161 84.5,165.8 76.8,167.8 77.7,170.2 75.3,169.7 72.4,169.2 71.5,166.3 68.6,165.4 68.6,173.1 
			62.8,171.6 61.8,169.2 52.2,168.7 45.4,162 51.2,156.2 56,156.7 60.9,158.1 62.8,156.2 67.6,157.6 73.9,158.1 80.1,159.6 
			84,158.6 		"/>
	</g>
	<g id="fin">
		<polygon class="st3" points="177.4,67.6 180.3,68 182.3,73.8 179.4,74.3 176,81.5 169.3,88.8 170.2,93.1 171.7,95.5 170.7,101.8 
			171.2,104.6 175,105.6 178.9,108 188,105.1 196.7,101.3 201.5,93.6 200.6,89.2 202.5,86.8 200.6,78.6 196.7,72.9 196.2,69 
			191.9,60.3 192.4,51.2 189.5,48.8 190,45.4 189,43.9 190,42 185.6,39.1 181.3,39.6 180.8,45.4 174.1,45.9 169.7,42 167.8,45.4 
			174.6,50.2 		"/>
	</g>
	<g id="gal">
		<polygon class="st3" points="163.5,175 167.3,175 168.8,176 173.1,173.5 174.6,171.6 177,172.1 179.9,174.5 183.2,173.5 
			185.6,172.1 187.6,173.5 188.5,176 195.3,178.8 197.7,186.6 197.2,189.4 197.7,194.7 192.9,197.2 188,191.9 185.2,190.9 
			184.7,189.4 180.3,186.1 176.5,185.1 171.7,183.2 165.4,184.6 161.6,182.7 158.2,183.2 157.7,179.3 158.2,183.2 157.7,179.3 
			159.6,179.8 161.6,178.8 		"/>
	</g>
	<g id="gas">
		<polygon class="st3" points="64.7,190.9 61.3,200 61.8,201 57,208.2 57.5,212.1 62.3,214.5 67.6,216.9 68.1,215.5 71.5,216.9 
			74.8,210.2 78.7,207.3 84,206.3 81.6,202.5 82.5,200.5 79.2,199.1 78.2,196.2 74.8,195.2 73.4,191.9 		"/>
	</g>
	<g id="gre">
		<polygon class="st3" points="166.4,250.6 169.7,255.9 171.7,255.9 170.2,256.9 172.6,260.8 179.9,260.3 181.8,262.2 174.1,261.7 
			171.7,263.6 175,267 176,272.8 176.5,270.4 179.9,274.2 180.3,271.8 184.2,274.7 181.8,266.5 185.2,267 184.7,263.2 189,264.6 
			188.5,261.2 181.3,254 181.8,252.6 185.2,254 180.3,248.7 181.8,245.8 185.6,249.2 187.1,248.7 186.6,245.8 189,246.3 
			186.1,243.4 191.9,243.4 190,237.6 184.2,239.6 180.8,239.6 177,241 174.6,242.9 171.7,242.9 171.7,245.8 		"/>
	</g>
	<g id="lyo">
		<polygon class="st0" points="58.4,242 56,238.1 62.8,229.9 66.2,227.5 73.4,227 78.7,224.1 79.2,220.8 79.2,217.4 84.5,214.5 
			87.8,216.9 93.6,219.3 98.4,218.8 104.7,216.4 110,213.5 115.3,215.9 117.7,223.7 111,223.7 109.5,225.1 104.7,226.1 105.7,233.3 
			108.1,234.7 108.1,236.7 106.1,238.1 102.3,238.6 101.8,240.5 77.2,240.5 74.3,239.1 71.5,242 		"/>
	</g>
	<g id="bot">
		<polygon class="st0" points="152.9,122 154.3,116.7 158.2,115.3 161.1,113.8 162.5,109 160.1,104.2 157.2,103.7 157.7,93.6 
			162,86.3 168.3,82.5 172.1,77.7 170.2,74.3 171.2,70 174.1,66.1 177.4,67.6 180.3,68 182.3,73.8 179.4,74.3 176,81.5 169.3,88.8 
			170.2,93.1 171.7,95.5 170.7,101.8 171.2,104.6 175,105.6 178.9,108 188,105.1 196.7,101.3 197.2,104.2 201.1,104.6 202.5,106.1 
			199.6,106.1 195.8,108.5 195.3,110.9 189.5,110.4 181.8,111.4 180.8,113.3 178.9,114.3 180.3,117.2 182.3,118.6 182.8,122.5 
			184.7,125.4 182.8,126.3 179.4,125.8 176,122 		"/>
	</g>
	<g id="hel">
		<polygon class="st0" points="121.1,130.2 120.1,135 120.6,138.4 120.1,139.8 121.1,142.7 120.6,146.1 120.6,147.5 116.3,149.5 
			115.8,148 113.9,147.5 111.9,148.5 104.7,148 104.7,130.2 		"/>
	</g>
	<g id="hol">
		<polygon class="st3" points="111.9,148.5 112.4,150.9 111.4,156.7 109,159.6 106.6,159.1 105.7,161.5 104.2,166.8 103.3,167.8 
			101.8,165.8 102.3,163.4 96.5,162 95.1,160.1 98.4,155.2 101.8,149 101.8,150.4 102.8,150.4 104.7,148 		"/>
	</g>
	<g id="ion">
		<polygon class="st0" points="142.3,262.2 142.8,263.6 145.2,264.1 151.4,256.9 152.9,252.6 149.5,249.2 152.4,247.3 156.3,249.7 
			158.2,249.7 158.2,247.3 164.4,247.3 166.4,250.6 169.7,255.9 171.7,255.9 170.2,256.9 172.6,260.8 179.9,260.3 181.8,262.2 
			174.1,261.7 171.7,263.6 175,267 176,272.8 176.5,270.4 179.9,274.2 180.3,271.8 184.2,274.7 187.6,278.1 186.1,279.5 187.6,281 
			195.8,282.9 195.8,285.3 114.8,285.3 115.8,281.5 114.8,278.1 111.4,273.8 114.3,271.8 116.7,268.5 122,263.2 127.3,266 
			134.6,271.8 138.4,272.3 138.9,267 140.4,263.2 140.4,262.2 		"/>
	</g>
	<g id="iri">
		<polygon class="st0" points="51.2,156.2 57,154.3 61.8,151.4 65.7,151.9 64.2,149 60.4,147 58.9,147 58.4,143.7 64.7,142.2 
			63.7,139.3 61.3,139.8 66.6,136.4 68.1,136.4 70,131.6 68.6,126.3 65.7,125.4 60.9,125.4 56,127.8 55.6,134.5 50.3,140.8 
			45,139.8 36.8,141.7 31,147.5 45.4,162 		"/>
	</g>
	<g id="kie">
		<polygon class="st3" points="120.6,138.4 120.1,139.8 121.1,142.7 120.6,146.1 120.6,147.5 116.3,149.5 115.8,148 113.9,147.5 
			111.9,148.5 112.4,150.9 111.4,156.7 109,159.6 106.6,159.1 105.7,161.5 114.8,164.4 119.2,168.2 120.1,171.1 129.8,165.4 
			128.8,158.6 130.2,157.2 129.3,154.3 131.2,152.3 131.2,148.5 128.8,148 128.3,145.6 126.4,144.2 126.4,142.7 125.4,138.9 		"/>
		<polygon class="st2" points="120.6,146.1 120.6,147.5 126.4,144.2 126.4,142.7 		"/>
	</g>
	<g id="lvp">
		<polygon class="st3" points="64.7,142.2 63.7,139.3 61.3,139.8 66.6,136.4 68.1,136.4 70,131.6 68.6,126.3 65.7,125.4 65.7,123.4 
			69.5,120.5 69.5,119.1 72.4,118.6 72.9,120.5 77.7,125.8 77.7,131.1 75.8,135.5 75.3,143.2 71.9,142.2 		"/>
	</g>
	<g id="lvn">
		<polygon class="st3" points="180.8,113.3 178.9,114.3 180.3,117.2 182.3,118.6 182.8,122.5 184.7,125.4 182.8,126.3 179.4,125.8 
			176,122 171.2,126.3 170.2,133.1 173.6,136.9 174.6,141.7 177.4,141.3 179.9,143.7 178.9,151.4 182.3,152.3 185.6,155.7 
			190.5,153.3 191.9,149.9 197.7,148.5 198.2,131.1 200.1,125.8 198.2,120.5 192.9,114.8 187.1,115.3 182.3,114.8 		"/>
	</g>
	<g id="lon">
		<polygon class="st3" points="83,145.6 84,146.1 85.4,145.1 88.3,146.1 88.8,148 87.8,152.3 82.5,157.2 85.9,157.6 84,158.6 
			80.1,159.6 73.9,158.1 72.9,151.4 75.3,149.5 76.8,146.6 		"/>
	</g>
	<g id="mar">
		<polygon class="st3" points="71.5,216.9 74.8,210.2 78.7,207.3 84,206.3 86.4,206.8 88.8,203.9 88.8,199.6 96.5,200 98,201.5 
			100.8,198.6 102.8,202 101.3,203.9 102.8,206.8 99.9,208.2 101.3,209.7 100.8,213.5 104.7,216.4 98.4,218.8 93.6,219.3 
			87.8,216.9 84.5,214.5 79.2,217.4 79.2,220.8 77.2,221.7 		"/>
	</g>
	<g id="mao">
		<polygon class="st0" points="52.2,168.7 51.2,171.1 52.7,174 55.6,174.5 62.3,181.7 61.8,184.6 62.3,188 64.7,190.9 61.3,200 
			61.8,201 57,208.2 51.7,206.8 49.3,207.3 37.7,201 31.5,199.6 29.1,196.7 26.2,196.2 25.2,198.1 21.8,196.7 18.9,199.6 19.9,201 
			18.5,206.8 17.5,211.6 11.2,221.7 9.8,221.7 7.9,224.6 9.3,228 10.3,228.5 8.8,232.8 9.3,234.7 6.9,238.6 12.2,242 16,241.5 
			18.9,244.9 19.4,249.2 20.9,252.1 20.9,254.5 18.9,255 11.2,265.6 3,266.5 3,147.5 31,147.5 		"/>
	</g>
	<g id="mos">
		<polygon class="st3" points="296.5,72.4 291.2,79.6 279.1,84.9 274.8,92.6 260.3,95 251.2,97.4 238.6,104.6 232.4,104.2 
			223.7,109.5 222.7,115.7 223.2,117.2 220.3,118.6 218.4,116.7 214.5,117.7 209.2,124.4 205.9,126.3 200.1,125.8 198.2,131.1 
			197.7,148.5 191.9,149.9 190.5,153.3 185.6,155.7 189,164.9 190.9,163.4 222.7,156.7 228.5,158.1 232.9,155.2 241,158.1 
			246.3,150.9 251.6,153.8 256.5,154.3 259.8,152.3 267.5,152.8 270,162.5 274.8,162.9 277.2,170.7 290.7,175 296.5,175 		"/>
	</g>
	<g id="mun">
		<polygon class="st3" points="115.8,192.3 120.1,194.3 121.6,193.8 123.5,194.7 131.7,193.3 133.6,194.3 132.6,190.4 135.5,190.4 
			138.4,187.5 136,182.7 132.2,181.3 130.2,174.5 131.2,172.6 137,173.1 141.8,170.7 139.9,167.3 141.8,162.9 129.8,165.4 
			120.1,171.1 117.2,171.1 108.6,181.7 104.7,182.7 105.7,185.6 103.7,190.9 110,191.9 111.4,190.4 114.8,190.9 		"/>
	</g>
	<g id="nap">
		<polygon class="st3" points="133.6,239.6 136,244.4 142.8,250.6 144.7,257.9 142.3,262.2 142.8,263.6 145.2,264.1 151.4,256.9 
			152.9,252.6 149.5,249.2 144.2,247.7 137.5,236.7 		"/>
	</g>
	<g id="nao">
		<polygon class="st0" points="36.8,141.7 33.9,136.4 35.3,132.6 37.2,134 42.1,128.7 38.7,125.8 41.6,124.4 40.6,121 42.5,120.5 
			45.9,122 48.3,122 48.8,121 48.3,120.1 49.8,120.1 51.7,118.1 56,118.1 60.4,120.5 60.9,125.4 65.7,125.4 65.7,123.4 69.5,120.5 
			69.5,119.1 65.7,116.2 65.2,110.9 70,107.1 70.5,103.7 74.3,101.3 74.3,16 3,16 3,147.5 31,147.5 		"/>
	</g>
	<g id="naf">
		<polygon class="st3" points="100.8,266.5 89.3,264.1 84.5,265.6 75.3,262.2 59.4,261.2 54.1,262.2 50.7,264.1 45.9,262.7 
			43.5,265.6 41.1,266.5 35.8,264.6 35.8,262.2 33.9,263.6 25.2,261.2 23.3,257.9 22.8,254 20.9,254.5 18.9,255 11.2,265.6 3,266.5 
			3,285.3 97,285.3 98,269.9 		"/>
	</g>
	<g id="nwy">
		<polygon class="st3" points="194.3,39.1 191.4,38.6 193.4,35.8 192.9,34.3 188,31.9 187.1,35.3 186.1,31.9 184.7,30.9 183.2,34.3 
			181.8,31.9 179.4,36.2 179.4,31.9 177.4,31.9 175,34.8 168.3,37.2 159.1,42 157.2,46.8 152.4,52.1 151.9,56.5 149,57.4 
			143.7,69.5 136.5,79.6 132.6,80.6 130.2,84.4 127.3,83.9 116.7,90.2 117.2,93.1 115.3,96.5 114.3,102.7 115.3,105.6 113.4,108.5 
			114.3,112.8 119.2,116.7 121.6,117.2 131.2,112.8 133.1,109 135.5,113.8 137.5,114.3 141.3,101.3 140.4,97.9 142.8,95 143.7,80.1 
			148.1,79.6 147.6,76.7 151.9,71.4 151.4,66.1 152.9,64.7 159.1,50.2 163,51.7 162,46.8 167.3,47.3 167.8,45.4 169.7,42 
			174.1,45.9 180.8,45.4 181.3,39.6 185.6,39.1 190,42 189,43.9 190,45.4 		"/>
	</g>
	<g id="par">
		<polygon class="st3" points="73.4,191.9 74.8,195.2 78.2,196.2 82.5,191.9 92.2,181.7 93.6,176 85.9,174 82.5,175.5 79.6,175.5 
			74.3,174.5 73.4,178.4 		"/>
	</g>
	<g id="pic">
		<polygon class="st3" points="84.5,165.8 76.8,167.8 77.7,170.2 75.3,169.7 74.3,174.5 79.6,175.5 82.5,175.5 85.9,174 93.6,176 
			95.5,171.6 91.7,167.8 		"/>
	</g>
	<g id="pie">
		<polygon class="st3" points="102.8,202 101.3,203.9 102.8,206.8 99.9,208.2 101.3,209.7 100.8,213.5 104.7,216.4 110,213.5 
			115.3,215.9 116.7,214 115.3,210.6 121.6,204.9 120.1,202.9 113.4,201.5 112.4,203.9 109.5,201.5 105.7,202.5 		"/>
	</g>
	<g id="por">
		<polygon class="st3" points="18.5,206.8 17.5,211.6 11.2,221.7 9.8,221.7 7.9,224.6 9.3,228 10.3,228.5 8.8,232.8 9.3,234.7 
			6.9,238.6 12.2,242 16,241.5 20.4,236.2 19.4,231.4 22.3,228.5 20.9,223.7 23.3,224.1 28.1,214.5 32.4,214 32.9,212.1 29.5,208.7 
			23.3,208.2 23.8,206.3 		"/>
	</g>
	<g id="pru">
		<polygon class="st3" points="170.2,133.1 170.2,135.5 170.7,138.4 168.8,142.2 165.4,143.2 164,147.5 161.1,148 160.1,143.7 
			154.3,144.2 151,147.5 144.7,148.5 143.7,155.7 146.1,158.6 145.7,160.5 157.2,162 159.1,160.1 160.1,156.7 167.3,154.3 
			169.3,155.2 176,153.8 178.9,151.4 179.9,143.7 177.4,141.3 174.6,141.7 173.6,136.9 		"/>
	</g>
	<g id="rom">
		<polygon class="st3" points="122,229 122.5,231.4 126.4,236.7 133.6,239.6 137.5,236.7 137.9,235.2 137.5,233.3 135.1,231.4 
			129.8,225.1 123.5,227 		"/>
	</g>
	<g id="ruh">
		<polygon class="st3" points="105.7,161.5 104.2,166.8 103.3,167.8 104.2,173.1 101.8,175.5 101.3,178.8 104.7,182.7 108.6,181.7 
			117.2,171.1 120.1,171.1 119.2,168.2 114.8,164.4 		"/>
	</g>
	<g id="rum">
		<polygon class="st3" points="197.2,189.4 197.7,194.7 192.9,197.2 193.4,200 196.2,201.5 198.6,206.8 196.2,209.7 189.5,209.7 
			179.9,211.6 178.9,214.5 179.9,218.8 181.3,220.8 183.7,219.8 187.1,221.7 190.9,220.8 194.8,221.7 197.7,219.3 200.6,218.4 
			206.4,218.4 210.2,219.8 211.2,213.1 214.5,210.6 214.1,207.3 208.8,208.2 206.4,200 206.8,197.2 202.5,195.2 201.1,189.9 		"/>
	</g>
	<g id="ser">
		<polygon class="st3" points="178.9,214.5 176.5,215 167.8,213.5 165.9,214.5 164.4,213.5 163,213.5 162,216.4 162.5,220.3 
			160.6,222.7 162,226.5 165.4,230.9 169.7,233.8 169.7,240.5 171.7,242.9 174.6,242.9 177,241 180.8,239.6 178.9,238.1 
			181.8,235.7 179.4,227.5 181.8,227 180.3,224.6 178.9,220.8 179.9,218.8 		"/>
	</g>
	<g id="sev">
		<polygon class="st3" points="214.1,207.3 217.9,198.1 224.2,196.7 225.1,197.6 224.2,198.6 227.1,200.5 232.4,199.6 233.3,200.5 
			230.4,201.5 228.5,204.9 232.9,206.8 232.9,209.2 237.2,210.6 238.2,207.3 241,206.8 242.5,204.9 247.3,203.4 246.8,201 
			241,202.5 236.7,198.1 245.4,191.4 256.5,185.1 256.9,186.6 250.7,191.9 252.1,194.7 253.6,194.7 251.2,201 249.2,200.5 
			248.8,202 252.1,205.3 257.4,205.8 270,211.6 276.2,212.6 279.1,216.9 277.7,221.7 286.8,229 289.2,227.5 293.6,228.5 296.5,228 
			296.5,175 290.7,175 277.2,170.7 274.8,162.9 270,162.5 267.5,152.8 259.8,152.3 256.5,154.3 251.6,153.8 246.3,150.9 241,158.1 
			232.9,155.2 228.5,158.1 229.5,162 227.6,163.9 224.7,182.2 217.4,184.6 212.1,189.4 211.2,195.2 206.8,197.2 206.4,200 
			208.8,208.2 		"/>
	</g>
	<g id="sil">
		<polygon class="st3" points="141.8,170.7 146.1,171.1 152.9,176.9 154.3,176 157.7,179.3 159.6,179.8 161.6,178.8 163.5,175 
			160.1,173.5 158.7,171.1 157.2,162 145.7,160.5 141.8,162.9 139.9,167.3 		"/>
	</g>
	<g id="ska">
		<polygon class="st0" points="119.2,116.7 121.6,117.2 131.2,112.8 133.1,109 135.5,113.8 136.5,121 136,123.9 138.9,129.7 
			137.5,131.6 137.5,133.1 135.5,132.6 132.6,133.1 131.2,131.6 131.7,128.7 131.2,122.5 129.8,123.4 122.5,123.9 119.2,123.9 		"/>
	</g>
	<g id="smy">
		<polygon class="st3" points="203.9,251.6 205.4,254.5 203.9,255.9 203.9,260.3 206.8,261.7 208.8,268.5 212.6,268 212.6,271.4 
			215.5,269.4 218.4,270.4 221.3,273.3 226.6,271.8 227.6,267 231.9,266.5 236.7,270.4 239.6,271.4 246.3,269.4 249.2,263.6 
			253.6,265.1 256.9,260.8 258.4,261.2 261.3,254 265.6,250.2 270.4,249.2 274.3,246.8 273.8,242.9 270.9,241 270.4,237.6 
			266.1,238.6 258.9,237.6 247.8,247.3 244.4,248.2 239.1,247.3 230.9,252.6 227.6,252.6 220.8,254.5 211.2,253.5 206.8,250.6 		"/>
	</g>
	<g id="spa">
		<polyline id="spanorth" class="st3" points="67.6,216.9 62.3,214.5 57.5,212.1 57,208.2 51.7,206.8 49.3,207.3 37.7,201 
			31.5,199.6 29.1,196.7 26.2,196.2 25.2,198.1 21.8,196.7 18.9,199.6 19.9,201 18.5,206.8 23.8,206.3 23.3,208.2 29.5,208.7 
			32.9,212.1 32.4,214 28.1,214.5 23.3,224.1 20.9,223.7 22.3,228.5 		"/>
		<polyline id="spasouth" class="st3" points="62.3,214.5 67.6,216.9 68.1,215.5 71.5,216.9 77.2,221.7 79.2,220.8 78.7,224.1 
			73.4,227 66.2,227.5 62.8,229.9 56,238.1 58.4,242 57.5,243.9 54.6,244.4 50.3,249.2 46.4,248.7 44.5,249.7 43,254 40.6,252.6 
			31.9,250.2 28.1,251.6 25.7,251.1 20.9,252.1 19.4,249.2 18.9,244.9 16,241.5 20.4,236.2 19.4,231.4 22.3,228.5 		"/>
	</g>
	<g id="stp">
		<polyline id="stpnorth" class="st3" points="260.3,95 274.8,92.6 279.1,84.9 291.2,79.6 296.5,72.4 296.5,16 263.2,16 260.8,20.3 
			258.4,18.9 252.1,25.2 251.6,31.9 250.2,34.3 250.2,27.1 247.3,25.6 246.3,28.5 243.5,31.9 240.1,39.1 241.5,43.9 238.2,44.9 
			233.8,43.5 232.9,42.5 234.8,40.1 230.9,36.7 227.6,37.7 230.4,45.9 233.3,47.8 233.3,51.7 230.4,50.7 228.5,51.7 223.2,59.8 
			229,64.2 228,67.1 225.6,68.5 217,64.7 216,69 218.4,71.4 221.8,73.3 220.8,74.8 212.1,72.9 208.3,65.6 208.3,61.3 202.5,58.4 
			201.5,56 217.4,56.5 223.2,54.1 224.2,47.8 221.3,45.4 203.9,38.6 198.2,39.6 196.2,37.7 194.3,39.1 190,45.4 189.5,48.8 
			192.4,51.2 191.9,60.3 196.2,69 196.7,72.9 200.6,78.6 202.5,86.8 		"/>
		<polyline id="stpsouth" class="st3" points="202.5,86.8 200.6,89.2 201.5,93.6 196.7,101.3 197.2,104.2 201.1,104.6 202.5,106.1 
			199.6,106.1 195.8,108.5 195.3,110.9 189.5,110.4 181.8,111.4 180.8,113.3 182.3,114.8 187.1,115.3 192.9,114.8 198.2,120.5 
			200.1,125.8 205.9,126.3 209.2,124.4 214.5,117.7 218.4,116.7 220.3,118.6 223.2,117.2 222.7,115.7 223.7,109.5 232.4,104.2 
			238.6,104.6 251.2,97.4 260.3,95 274.8,92.6 		"/>
	</g>
	<g id="swe">
		<polygon class="st3" points="135.5,113.8 136.5,121 136,123.9 138.9,129.7 137.5,131.6 137.5,133.1 138.9,137.9 142.3,138.4 
			144.7,134 150,133.6 153.4,126.3 152.9,122 154.3,116.7 158.2,115.3 161.1,113.8 162.5,109 160.1,104.2 157.2,103.7 157.7,93.6 
			162,86.3 168.3,82.5 172.1,77.7 170.2,74.3 171.2,70 174.1,66.1 177.4,67.6 174.6,50.2 167.8,45.4 167.3,47.3 162,46.8 163,51.7 
			159.1,50.2 152.9,64.7 151.4,66.1 151.9,71.4 147.6,76.7 148.1,79.6 143.7,80.1 142.8,95 140.4,97.9 141.3,101.3 137.5,114.3 		
			"/>
	</g>
	<g id="syr">
		<polygon class="st3" points="258.4,261.2 261.3,254 265.6,250.2 270.4,249.2 274.3,246.8 284.4,246.3 296.5,253.5 296.5,285.3 
			257.4,285.3 259.4,273.8 256.5,271.4 256,265.6 		"/>
	</g>
	<g id="tri">
		<polygon class="st3" points="136,208.2 135.5,210.2 137,213.5 138.9,209.2 140.8,209.7 142.3,217.4 150.5,226.1 162.5,234.7 
			162,230.4 165.4,230.9 162,226.5 160.6,222.7 162.5,220.3 162,216.4 163,213.5 158.7,212.6 157.7,207.8 152.9,205.8 151.4,200.5 
			147.1,201.5 144.7,199.1 142.3,201.5 136,202 137.5,203.4 		"/>
	</g>
	<g id="tun">
		<polygon class="st3" points="114.8,285.3 115.8,281.5 114.8,278.1 111.4,273.8 114.3,271.8 116.7,268.5 115.3,268 111,269.9 
			110.5,265.6 108.1,264.6 105.2,265.1 103.3,267 100.8,266.5 98,269.9 97,285.3 		"/>
	</g>
	<g id="tus">
		<polygon class="st3" points="115.3,215.9 117.7,223.7 122,229 123.5,227 129.8,225.1 124.9,217.4 121.6,216.4 118.7,215.9 
			116.7,214 		"/>
	</g>
	<g id="tyr">
		<polygon class="st3" points="115.8,192.3 120.1,194.3 121.6,193.8 123.5,194.7 131.7,193.3 133.6,194.3 132.6,190.4 135.5,190.4 
			138.4,187.5 143.7,188 145.2,190.4 144.7,199.1 142.3,201.5 136,202 132.2,201.5 127.8,202.9 125.9,205.8 123.5,207.3 
			121.6,204.9 120.1,202.9 121.1,201 119.2,198.1 115.8,196.2 		"/>
	</g>
	<g id="tys">
		<polygon class="st0" points="117.7,223.7 122,229 122.5,231.4 126.4,236.7 133.6,239.6 136,244.4 142.8,250.6 144.7,257.9 
			142.3,262.2 140.4,262.2 140.4,260.8 136,261.7 129.8,261.7 126.9,260.3 124.5,260.8 122,263.2 116.7,268.5 115.3,268 111,269.9 
			110.5,265.6 108.1,264.6 108.1,252.1 109,252.1 111,241.5 110,236.7 108.1,236.7 108.1,234.7 110.5,232.8 111.4,229.9 
			111.4,226.1 111,223.7 		"/>
	</g>
	<g id="ukr">
		<polygon class="st3" points="187.6,173.5 188.5,176 195.3,178.8 197.7,186.6 197.2,189.4 201.1,189.9 202.5,195.2 206.8,197.2 
			211.2,195.2 212.1,189.4 217.4,184.6 224.7,182.2 227.6,163.9 229.5,162 228.5,158.1 222.7,156.7 190.9,163.4 189,164.9 		"/>
	</g>
	<g id="ven">
		<polygon class="st3" points="137,229.4 134.1,220.3 128.3,216.9 128.8,209.2 133.1,207.8 136,208.2 137.5,203.4 136,202 
			132.2,201.5 127.8,202.9 125.9,205.8 123.5,207.3 121.6,204.9 115.3,210.6 116.7,214 118.7,215.9 121.6,216.4 124.9,217.4 
			129.8,225.1 135.1,231.4 		"/>
	</g>
	<g id="vie">
		<polygon class="st3" points="143.7,188 145.2,184.1 149,182.7 155.3,183.7 158.2,183.2 161.6,182.7 165.4,184.6 164.4,186.6 
			158.2,194.3 152.9,196.7 151.4,200.5 147.1,201.5 144.7,199.1 145.2,190.4 		"/>
	</g>
	<g id="wal">
		<polygon class="st3" points="51.2,156.2 57,154.3 61.8,151.4 65.7,151.9 64.2,149 60.4,147 58.9,147 58.4,143.7 64.7,142.2 
			71.9,142.2 75.3,143.2 76.8,146.6 75.3,149.5 72.9,151.4 73.9,158.1 67.6,157.6 62.8,156.2 60.9,158.1 56,156.7 		"/>
	</g>
	<g id="war">
		<polygon class="st3" points="163.5,175 160.1,173.5 158.7,171.1 157.2,162 159.1,160.1 160.1,156.7 167.3,154.3 169.3,155.2 
			176,153.8 178.9,151.4 182.3,152.3 185.6,155.7 189,164.9 187.6,173.5 185.6,172.1 183.2,173.5 179.9,174.5 177,172.1 
			174.6,171.6 173.1,173.5 168.8,176 167.3,175 		"/>
	</g>
	<g id="wes">
		<polygon class="st0" points="20.9,252.1 25.7,251.1 28.1,251.6 31.9,250.2 40.6,252.6 43,254 44.5,249.7 46.4,248.7 50.3,249.2 
			54.6,244.4 57.5,243.9 58.4,242 71.5,242 75.3,242.9 77.2,240.5 101.8,240.5 102.3,245.3 101.3,249.7 103.3,253 105.2,253 
			107.6,251.6 108.1,252.1 108.1,264.6 105.2,265.1 103.3,267 100.8,266.5 89.3,264.1 84.5,265.6 75.3,262.2 59.4,261.2 54.1,262.2 
			50.7,264.1 45.9,262.7 43.5,265.6 41.1,266.5 35.8,264.6 35.8,262.2 33.9,263.6 25.2,261.2 23.3,257.9 22.8,254 20.9,254.5 		"/>
	</g>
	<g id="yor">
		<polygon class="st3" points="81.6,124.9 81.6,131.1 84,134.5 84.9,137.4 84.5,143.7 83,145.6 76.8,146.6 75.3,143.2 75.8,135.5 
			77.7,131.1 77.7,125.8 		"/>
	</g>
	<g>
		<g>
			<circle class="st4" cx="160.1" cy="197.2" r="1.9"/>
		</g>
	</g>
	<g>
		<g>
			<circle class="st4" cx="139.9" cy="206.8" r="1.9"/>
		</g>
	</g>
	<g>
		<g>
			<circle class="st4" cx="148.1" cy="190.9" r="1.9"/>
		</g>
	</g>
	<g>
		<g>
			<circle class="st4" cx="77.2" cy="121.5" r="1.9"/>
		</g>
	</g>
	<g>
		<g>
			<circle class="st4" cx="72.4" cy="139.8" r="1.9"/>
		</g>
	</g>
	<g>
		<g>
			<circle class="st4" cx="81.1" cy="155.7" r="1.9"/>
		</g>
	</g>
	<g>
		<g>
			<circle class="st4" cx="54.1" cy="171.1" r="1.9"/>
		</g>
	</g>
	<g>
		<g>
			<circle class="st4" cx="92.7" cy="216.9" r="1.9"/>
		</g>
	</g>
	<g>
		<g>
			<circle class="st4" cx="86.4" cy="176.9" r="1.9"/>
		</g>
	</g>
	<g>
		<g>
			<circle class="st4" cx="138.4" cy="159.6" r="1.9"/>
		</g>
	</g>
	<g>
		<g>
			<circle class="st4" cx="125.4" cy="149.9" r="1.9"/>
		</g>
	</g>
	<g>
		<g>
			<circle class="st4" cx="127.3" cy="189" r="1.9"/>
		</g>
	</g>
	<g>
		<g>
			<circle class="st4" cx="137" cy="242" r="1.9"/>
		</g>
	</g>
	<g>
		<g>
			<circle class="st4" cx="124.5" cy="229.4" r="1.9"/>
		</g>
	</g>
	<g>
		<g>
			<circle class="st4" cx="128.8" cy="207.3" r="1.9"/>
		</g>
	</g>
	<g>
		<g>
			<circle class="st4" cx="234.8" cy="128.7" r="1.9"/>
		</g>
	</g>
	<g>
		<g>
			<circle class="st4" cx="235.7" cy="206.8" r="1.9"/>
		</g>
	</g>
	<g>
		<g>
			<circle class="st4" cx="204.4" cy="106.1" r="1.9"/>
		</g>
	</g>
	<g>
		<g>
			<circle class="st4" cx="169.7" cy="161.5" r="1.9"/>
		</g>
	</g>
	<g>
		<g>
			<circle class="st4" cx="235.3" cy="242" r="1.9"/>
		</g>
	</g>
	<g>
		<g>
			<circle class="st4" cx="209.7" cy="237.6" r="1.9"/>
		</g>
	</g>
	<g>
		<g>
			<circle class="st4" cx="207.3" cy="257.9" r="1.9"/>
		</g>
	</g>
</g>
<rect x="77.1" y="111.8" transform="matrix(0.7071 -0.7071 0.7071 0.7071 -57.3483 89.3566)" class="st5" width="4.2" height="4.2" id="a-edi"/>
<rect x="78" y="137.7" transform="matrix(0.7071 -0.7071 0.7071 0.7071 -75.4132 97.5875)" class="st5" width="4.2" height="4.2" id="a-yor"/>
<rect x="67.9" y="108.1" transform="matrix(0.7071 -0.7071 0.7071 0.7071 -57.421 81.7814)" class="st5" width="4.2" height="4.2" id="a-cly"/>
<rect x="70.3" y="126.6" transform="matrix(0.7071 -0.7071 0.7071 0.7071 -69.8233 88.8805)" class="st5" width="4.2" height="4.2" id="a-lvp"/>
<rect x="68" y="145.7" transform="matrix(0.7071 -0.7071 0.7071 0.7071 -83.9989 92.8595)" class="st5" width="4.2" height="4.2" id="a-wal"/>
<rect x="105" y="150.7" transform="matrix(0.7071 -0.7071 0.7071 0.7071 -76.6977 120.4868)" class="st5" width="4.2" height="4.2" id="a-hol"/>
<rect x="96" y="165.7" transform="matrix(0.7071 -0.7071 0.7071 0.7071 -89.9402 118.5162)" class="st5" width="4.2" height="4.2" id="a-bel"/>
<rect x="96" y="182.7" transform="matrix(0.7071 -0.7071 0.7071 0.7071 -101.961 123.4952)" class="st5" width="4.2" height="4.2" id="a-bur"/>
<rect x="78" y="182.7" transform="matrix(0.7071 -0.7071 0.7071 0.7071 -107.2329 110.7674)" class="st5" width="4.2" height="4.2" id="a-par"/>
<rect x="66" y="180.7" transform="matrix(0.7071 -0.7071 0.7071 0.7071 -109.3333 101.6963)" class="st5" width="4.2" height="4.2" id="a-bre"/>
<rect x="38" y="232.7" transform="matrix(0.7071 -0.7071 0.7071 0.7071 -154.3036 97.1275)" class="st5" width="4.2" height="4.2" id="a-spa"/>
<rect x="63" y="272.7" transform="matrix(0.7071 -0.7071 0.7071 0.7071 -175.2656 126.5206)" class="st5" width="4.2" height="4.2" id="a-naf"/>
<rect x="103" y="274.7" transform="matrix(0.7071 -0.7071 0.7071 0.7071 -164.9643 155.3905)" class="st5" width="4.2" height="4.2" id="a-tun"/>
<rect x="13" y="222.7" transform="matrix(0.7071 -0.7071 0.7071 0.7071 -154.5547 76.521)" class="st5" width="4.2" height="4.2" id="a-por"/>
<rect x="69" y="200.7" transform="matrix(0.7071 -0.7071 0.7071 0.7071 -122.5968 109.6754)" class="st5" width="4.2" height="4.2" id="a-gas"/>
<rect x="91" y="206.7" transform="matrix(0.7071 -0.7071 0.7071 0.7071 -120.3959 126.9889)" class="st5" width="4.2" height="4.2" id="a-mar"/>
<rect x="107" y="206.7" transform="matrix(0.7071 -0.7071 0.7071 0.7071 -115.7097 138.3026)" class="st5" width="4.2" height="4.2" id="a-pie"/>
<rect x="108" y="167.7" transorm="matrix(0.7071 -0.7071 0.7071 0.7071 -87.8398 127.5872)" class="st5" width="4.2" height="4.2" id="a-ruh"/>
<rect x="118" y="179.7" transform="matrix(0.7071 -0.7071 0.7071 0.7071 -93.3962 138.1728)" class="st5" width="4.2" height="4.2" id="a-mun"/>
<rect x="119" y="156.7" transform="matrix(0.7071 -0.7071 0.7071 0.7071 -76.8398 132.1436)" class="st5" width="4.2" height="4.2" id="a-kie"/>
<rect x="149" y="211.7" transform="matrix(0.7071 -0.7071 0.7071 0.7071 -106.944 169.4654)" class="st5" width="4.2" height="4.2" id="a-tri"/>
<rect x="136" y="193.7" transform="matrix(0.7071 -0.7071 0.7071 0.7071 -98.0236 155.0011)" class="st5" width="4.2" height="4.2" id="a-tyr"/>
<rect x="140" y="175.7" transform="matrix(0.7071 -0.7071 0.7071 0.7071 -84.1242 152.5576)" class="st5" width="4.2" height="4.2" id="a-boh"/>
<rect x="170" y="200.7" transform="matrix(0.7071 -0.7071 0.7071 0.7071 -93.0153 181.0928)" class="st5" width="4.2" height="4.2" id="a-bud"/>
<rect x="167" y="219.7" transform="matrix(0.7071 -0.7071 0.7071 0.7071 -107.3288 184.5364)" class="st5" width="4.2" height="4.2" id="a-ser"/>
<rect x="152" y="186.7" transform="matrix(0.7071 -0.7071 0.7071 0.7071 -88.3877 164.2645)" class="st5" width="4.2" height="4.2" id="a-vie"/>
<rect x="182" y="178.7" transform="matrix(0.7071 -0.7071 0.7071 0.7071 -73.9443 183.1346)" class="st5" width="4.2" height="4.2" id="a-gal"/>
<rect x="200" y="210.7" transform="matrix(0.7071 -0.7071 0.7071 0.7071 -91.2997 205.2348)" class="st5" width="4.2" height="4.2" id="a-rum"/>
<rect x="193" y="225.7" transform="matrix(0.7071 -0.7071 0.7071 0.7071 -103.9565 204.6784)" class="st5" width="4.2" height="4.2" id="a-bul"/>
<rect x="134" y="149.7" transform="matrix(0.7071 -0.7071 0.7071 0.7071 -67.4969 140.6999)" class="st5" width="4.2" height="4.2" id="a-ber"/>
<rect x="124" y="126.7" transform="matrix(0.7071 -0.7071 0.7071 0.7071 -54.1623 126.8925)" class="st5" width="4.2" height="4.2" id="a-pic"/>
<rect x="85" y="168.7" transform="matrix(0.7071 -0.7071 0.7071 0.7071 -95.2832 111.6166)" class="st5" width="4.2" height="4.2"  id="a-pic"/>
<rect x="175" y="162.7" transform="matrix(0.7071 -0.7071 0.7071 0.7071 -64.6809 173.4987)" class="st5" width="4.2" height="4.2" id="a-war"/>
<rect x="146" y="164.7" transform="matrix(0.7071 -0.7071 0.7071 0.7071 -74.5888 153.5784)" class="st5" width="4.2" height="4.2" id="a-sil"/>
<rect x="169" y="145.7" transform="matrix(0.7071 -0.7071 0.7071 0.7071 -54.4174 164.277)" class="st5" width="4.2" height="4.2" id="a-pru"/>
<rect x="125" y="96.7" transform="matrix(0.7071 -0.7071 0.7071 0.7071 -32.6563 118.813)" class="st5" width="4.2" height="4.2" id="a-nwy"/>
<rect x="145" y="107.7" transform="matrix(0.7071 -0.7071 0.7071 0.7071 -34.5767 136.1768)" class="st5" width="4.2" height="4.2" id="a-swe"/>
<rect x="186" y="85.7" transform="matrix(0.7071 -0.7071 0.7071 0.7071 -7.0121 158.7246)" class="st5" width="4.2" height="4.2" id="a-fin"/>
<rect x="186" y="135.7" transform="matrix(0.7071 -0.7071 0.7071 0.7071 -42.3673 173.3689)" class="st5" width="4.2" height="4.2" id="a-lvn"/>
<rect x="222" y="92.7" transform="matrix(0.7071 -0.7071 0.7071 0.7071 -1.4179 186.2305)" class="st5" width="4.2" height="4.2" id="a-stp"/>
<rect x="221" y="135.7" transform="matrix(0.7071 -0.7071 0.7071 0.7071 -32.1163 198.1175)" class="st5" width="4.2" height="4.2" id="a-mos"/>
<rect x="208" y="172.7" transform="matrix(0.7071 -0.7071 0.7071 0.7071 -62.0866 199.762)" class="st5" width="4.2" height="4.2" id="a-ukr"/>
<rect x="258" y="168.7" transform="matrix(0.7071 -0.7071 0.7071 0.7071 -44.6139 233.9456)" class="st5" width="4.2" height="4.2" id="a-sev"/>
<rect x="216" y="244.7" transform="matrix(0.7071 -0.7071 0.7071 0.7071 -110.655 226.5066)" class="st5" width="4.2" height="4.2" id="a-con"/>
<rect x="244" y="234.7" transform="matrix(0.7071 -0.7071 0.7071 0.7071 -95.3831 243.3767)" class="st5" width="4.2" height="4.2" id="a-ank"/>
<rect x="281" y="232.7" transform="matrix(0.7071 -0.7071 0.7071 0.7071 -83.1321 268.9538)" class="st5" width="4.2" height="4.2" id="a-arm"/>
<rect x="273" y="259.7" transform="matrix(0.7071 -0.7071 0.7071 0.7071 -104.5671 271.2049)" class="st5" width="4.2" height="4.2" id="a-syr"/>
<rect x="241" y="253.7" transform="matrix(0.7071 -0.7071 0.7071 0.7071 -109.6968 246.8202)" class="st5" width="4.2" height="4.2" id="a-smy"/>
<rect x="164" y="235.7" transform="matrix(0.7071 -0.7071 0.7071 0.7071 -119.5212 187.1012)" class="st5" width="4.2" height="4.2" id="a-alb"/>
<rect x="173" y="248.7" transform="matrix(0.7071 -0.7071 0.7071 0.7071 -126.0776 197.2727)" class="st5" width="4.2" height="4.2" id="a-gre"/>
<rect x="145" y="239.7" transform="matrix(0.7071 -0.7071 0.7071 0.7071 -127.9144 174.8378)" class="st5" width="4.2" height="4.2" id="a-apu"/>
<rect x="120" y="217.7" transform="matrix(0.7071 -0.7071 0.7071 0.7071 -119.6803 150.7167)" class="st5" width="4.2" height="4.2" id="a-tus"/>
<rect x="128" y="228.7" transform="matrix(0.7071 -0.7071 0.7071 0.7071 -125.1154 159.5953)" class="st5" width="4.2" height="4.2" id="a-rom"/>
<rect x="122" y="209.7" transform="matrix(0.7071 -0.7071 0.7071 0.7071 -113.4377 149.7879)" class="st5" width="4.2" height="4.2" id="a-ven"/>
<rect x="146" y="249.7" transform="matrix(0.7071 -0.7071 0.7071 0.7071 -134.6926 178.4738)" class="st5" width="4.2" height="4.2" id="a-nap"/>
<rect x="168" y="107.8" transform="matrix(0.2588 -0.9659 0.9659 0.2588 16.1693 248.6468)" class="st5" width="4.2" height="12" id="f-bot"/>
<rect x="158" y="126.8" transform="matrix(0.2588 -0.9659 0.9659 0.2588 -9.5944 253.0705)" class="st5" width="4.2" height="12" id="f-bal"/>
<rect x="105.1" y="50.7" class="st5" width="12" height="4.2" id="f-nwg"/>
<rect x="95.1" y="114.7" class="st5" width="12" height="4.2" id="f-nhh"/>
<rect x="110" y="132.8" class="st5" width="4.2" height="12" id="f-hel"/>
<rect x="25" y="93.8" class="st5" width="4.2" height="12" id="f-nao"/>
<rect x="23" y="169.8" class="st5" width="4.2" height="12" id="f-mao"/>
<rect x="208.1" y="24.7" class="st5" width="12" height="4.2" id="f-bar"/>
<rect x="83.1" y="228.7" class="st5" width="12" height="4.2" id="f-lyo"/>
<rect x="142.1" y="277.7" class="st5" width="12" height="4.2" id="f-ion"/>
<rect x="121.1" y="248.7" class="st5" width="12" height="4.2" id="f-tys"/>
<rect x="76.1" y="250.7" class="st5" width="12" height="4.2" id="f-wes"/>
<rect x="229.1" y="277.7" class="st5" width="12" height="4.2" id="f-eas"/>
<rect x="195" y="260.8" class="st5" width="4.2" height="12" id="f-aeg"/>
<rect x="232.1" y="214.7" class="st5" width="12" height="4.2" id="f-bla"/>
<rect x="142" y="220.8" transform="matrix(0.7071 -0.7071 0.7071 0.7071 -118.1475 168.3342)" class="st5" width="4.2" height="12" id="f-adr"/>
<rect x="109" y="266.8" transform="matrix(0.7071 -0.7071 0.7071 0.7071 -160.3397 158.473)" class="st5" width="4.2" height="12" id="f-tun"/>
<rect x="15.1" y="256.7" class="st5" width="12" height="4.2" id="f-naf"/>
<rect x="52.1" y="160.7" class="st5" width="12" height="4.2" id="f-eng"/>
<rect x="40.1" y="146.7" class="st5" width="12" height="4.2" id="f-iri"/>
<rect x="63" y="146.8" transform="matrix(0.7071 -0.7071 0.7071 0.7071 -88.961 90.799)" class="st5" width="4.2" height="12" id="f-wal"/>
<rect x="77.1" y="153.7" transform="matrix(0.7071 -0.7071 0.7071 0.7071 -85.8483 104.3949)" class="st5" width="12" height="4.2" id="f-lon"/>
<rect x="97.1" y="149.7" transform="matrix(0.7071 -0.7071 0.7071 0.7071 -77.1621 117.3655)" class="st5" width="12" height="4.2" id="f-hol"/>
<rect x="91" y="157.8" transform="matrix(0.7071 -0.7071 0.7071 0.7071 -88.538 113.8196)" class="st5" width="4.2" height="12" id="f-bel"/>
<rect x="80" y="162.8" transform="matrix(0.515 -0.8572 0.8572 0.515 -104.8559 152.2605)" class="st5" width="4.2" height="12" id="f-pic"/>
<rect x="55.3" y="171.9" transform="matrix(0.7071 -0.7071 0.7071 0.7071 -105.1095 94.3118)" class="st5" width="12" height="4.2" id="f-bre"/>
<rect x="57.3" y="196.9" transform="matrix(0.7071 -0.7071 0.7071 0.7071 -122.2012 103.0482)" class="st5" width="12" height="4.2" id="f-gas"/>
<rect x="10.3" y="213.9" transform="matrix(0.7071 -0.7071 0.7071 0.7071 -147.9877 74.7934)" class="st5" width="12" height="4.2" id="f-por"/>
<rect x="38.2" y="196" transform="matrix(0.7071 -0.7071 0.7071 0.7071 -131.0082 87.6776)" class="st5" width="4.2" height="12" id="f-spa-n"/>
<rect x="51.3" y="235.9" transform="matrix(0.7071 -0.7071 0.7071 0.7071 -151.5355 110.2282)" class="st5" width="12" height="4.2" id="f-spa-s"/>
<rect x="79.3" y="214.9" class="st5" width="12" height="4.2" id="f-mar"/>
<rect x="108.2" y="207.1" class="st5" width="4.2" height="12" id="f-pie"/>
<rect x="208.3" y="267.9" class="st5" width="12" height="4.2" id="f-smy"/>
<rect x="258.2" y="199.1" class="st5" width="4.2" height="12" id="f-sev"/>
<rect x="254" y="221.8" class="st5" width="4.2" height="12" id="f-ank"/>
<rect x="210" y="207.8" transform="matrix(0.2588 -0.9659 0.9659 0.2588 -49.2899 363.3331)" class="st5" width="4.2" height="12" id="f-rum"/>
<rect x="202.1" y="223.7" class="st5" width="12" height="4.2" id="f-bul-e"/>
<rect x="271" y="217.8" transform="matrix(0.5 -0.866 0.866 0.5 -57.25 348.4051)" class="st5" width="4.2" height="12" id="f-arm"/>
<rect x="219" y="228.8" class="st5" width="4.2" height="12" id="f-con"/>
<rect x="252.1" y="273.7" class="st5" width="12" height="4.2" id="f-syr"/>
<rect x="173.1" y="266.7" class="st5" width="12" height="4.2" id="f-gre"/>
<rect x="194" y="231.8" class="st5" width="4.2" height="12" id="f-bul-s"/>
<rect x="130" y="213.8" transform="matrix(0.866 -0.5 0.5 0.866 -92.19 95.5171)" class="st5" width="4.2" height="12" id="f-ven"/>
<rect x="150" y="219.8" transform="matrix(0.7071 -0.7071 0.7071 0.7071 -115.0973 173.6981)" class="st5" width="4.2" height="12" id="f-tri"/>
<rect x="143" y="230.8" transform="matrix(0.7071 -0.7071 0.7071 0.7071 -124.9257 171.9703)" class="st5" width="4.2" height="12" id="f-apu"/>
<rect x="144" y="252.8" transform="matrix(0.7071 -0.7071 0.7071 0.7071 -140.189 179.121)" class="st5" width="4.2" height="12" id="f-nap"/>
<rect x="161" y="235.8" transform="matrix(0.7071 -0.7071 0.7071 0.7071 -123.189 186.1625)" class="st5" width="4.2" height="12"  id="f-alb"/>
<rect x="121.1" y="236.7" transform="matrix(0.7071 -0.7071 0.7071 0.7071 -131.6508 159.8171)" class="st5" width="12" height="4.2" id="f-rom"/>
<rect x="112.1" y="223.7" transform="matrix(0.7071 -0.7071 0.7071 0.7071 -125.0945 149.6456)" class="st5" width="12" height="4.2" id="f-tus"/>
<rect x="193" y="104.8" transform="matrix(0.2588 -0.9659 0.9659 0.2588 37.5967 270.5704)" class="st5" width="4.2" height="12" id="f-stp-s"/>
<rect x="174" y="99.8" transform="matrix(0.2588 -0.9659 0.9659 0.2588 28.3436 248.5125)" class="st5" width="4.2" height="12" id="f-fin"/>
<rect x="114.1" y="87.7" transform="matrix(0.7071 -0.7071 0.7071 0.7071 -28.3426 111.2273)" class="st5" width="12" height="4.2" id="f-nwy"/>
<rect x="150.1" y="116.7" transform="matrix(0.7071 -0.7071 0.7071 0.7071 -38.3047 145.1768)" class="st5" width="12" height="4.2" id="f-swe"/>
<rect x="168.1" y="121.7" transform="matrix(0.7071 -0.7071 0.7071 0.7071 -36.5683 159.3691)" class="st5" width="12" height="4.2" id="f-lvn"/>
<rect x="152.1" y="141.7" class="st5" width="12" height="4.2" id="f-pru"/>
<rect x="137" y="142.8" class="st5" width="4.2" height="12" id="f-ber"/>
<rect x="118.1" y="141.7" class="st5" width="12" height="4.2" id="f-kie"/>
<rect x="127" y="128.8" transform="matrix(0.2588 -0.9659 0.9659 0.2588 -34.5032 224.6103)" class="st5" width="4.2" height="12" id="f-den"/>
<rect x="122.1" y="116.7" transform="matrix(0.9659 -0.2588 0.2588 0.9659 -26.3841 37.1986)" class="st5" width="12" height="4.2" id="f-ska"/>
<rect x="212" y="35.8" transform="matrix(0.2588 -0.9659 0.9659 0.2588 118.3259 237.7802)" class="st5" width="4.2" height="12" id="f-stp-n"/>
<rect x="63.1" y="103.7" transform="matrix(0.7071 -0.7071 0.7071 0.7071 -54.5935 79.8512)" class="st5" width="12" height="4.2" id="f-cly"/>
<rect x="81" y="127.8" class="st5" width="4.2" height="12" id="f-yor"/>
<rect x="62.1" y="131.7" class="st5" width="12" height="4.2" id="f-lvp"/>
<rect x="79" y="111.8" transform="matrix(0.7071 -0.7071 0.7071 0.7071 -59.5261 91.8612)" class="st5" width="4.2" height="12" id="f-edi"/>
</svg>
